<?xml version="1.0" standalone="no"?>
<!DOCTYPE svg PUBLIC "-//W3C//DTD SVG 20010904//EN"
 "http://www.w3.org/TR/2001/REC-SVG-20010904/DTD/svg10.dtd">
<svg version="1.0" xmlns="http://www.w3.org/2000/svg"
 width="100" height="100" viewBox="0 0 1024.000000 1024.000000"
 preserveAspectRatio="xMidYMid meet">

<g transform="translate(0.000000,1024.000000) scale(0.100000,-0.100000)"
fill="#000000" stroke="none">
<path d="M4845 7639 c-174 -18 -473 -95 -642 -164 -407 -169 -769 -435 -1026
-755 -288 -358 -451 -728 -522 -1188 -38 -242 -29 -592 21 -842 74 -373 279
-781 555 -1104 181 -213 511 -467 789 -606 170 -85 450 -180 645 -219 199 -39
261 -44 490 -45 244 -1 289 5 570 75 300 73 745 300 999 507 294 241 594 654
731 1007 204 529 215 1099 30 1663 -115 351 -383 764 -663 1021 -293 269 -624
459 -992 569 -172 51 -206 58 -370 77 -145 16 -477 18 -615 4z m606 -224 c351
-41 723 -192 1019 -414 130 -97 332 -289 423 -401 180 -223 326 -495 402 -749
64 -216 85 -355 92 -593 12 -415 -48 -714 -208 -1048 -138 -287 -384 -585
-654 -795 -153 -118 -222 -160 -423 -257 -416 -202 -799 -266 -1252 -208 -192
25 -185 23 -353 71 -572 164 -1085 568 -1384 1091 -97 169 -195 449 -235 668
-29 163 -36 485 -14 675 27 231 96 471 199 690 116 246 238 420 431 610 187
185 331 293 553 414 252 137 485 210 818 254 82 11 471 6 586 -8z"/>
<path d="M4962 7110 c-519 -43 -1073 -351 -1394 -775 -113 -150 -215 -347
-282 -546 -153 -456 -137 -904 47 -1317 73 -163 136 -271 232 -400 298 -401
725 -674 1204 -772 133 -27 354 -40 500 -29 328 25 727 181 1017 398 238 177
455 447 615 763 65 128 124 350 150 558 14 115 6 391 -15 505 -62 342 -212
662 -443 942 -107 131 -233 242 -403 356 -314 211 -626 314 -970 322 -85 2
-201 0 -258 -5z m317 -210 c215 -23 469 -98 631 -187 477 -261 791 -680 901
-1203 27 -132 37 -408 19 -543 -50 -380 -227 -722 -512 -993 -128 -121 -300
-242 -457 -319 -222 -110 -433 -164 -676 -172 -310 -11 -636 70 -905 223 -241
138 -482 369 -635 609 -253 397 -312 929 -155 1403 64 196 104 283 190 414 87
133 183 236 338 362 344 279 673 399 1127 414 22 1 82 -3 134 -8z"/>
<path d="M4960 6625 c-422 -62 -809 -298 -1038 -633 -144 -211 -233 -460 -251
-705 -45 -623 332 -1201 936 -1436 346 -135 622 -139 991 -15 276 92 550 300
706 534 20 30 52 78 70 105 133 199 198 430 198 700 0 242 -43 439 -138 629
-178 355 -480 627 -836 752 -225 78 -427 100 -638 69z m338 -220 c270 -44 528
-176 715 -368 186 -191 301 -439 337 -727 20 -164 5 -318 -49 -493 -41 -133
-61 -175 -133 -281 -219 -325 -532 -517 -926 -567 -210 -27 -554 49 -737 162
-356 220 -558 519 -604 894 -48 392 73 753 341 1017 175 173 464 325 679 357
40 6 85 13 99 15 62 9 193 5 278 -9z"/>
<path d="M4973 6140 c-23 -5 -90 -25 -149 -45 -244 -81 -431 -239 -567 -478
-84 -148 -123 -365 -98 -551 34 -254 153 -463 357 -626 185 -149 493 -241 707
-212 148 19 365 106 491 196 110 79 218 223 301 404 46 99 56 134 70 229 35
237 -19 462 -158 668 -119 175 -314 316 -547 395 -53 18 -93 23 -215 26 -82 2
-169 -1 -192 -6z m313 -216 c138 -29 317 -133 413 -240 146 -164 216 -450 163
-661 -41 -162 -129 -308 -242 -402 -69 -58 -220 -133 -315 -157 -164 -42 -366
-16 -541 71 -148 74 -253 179 -320 320 -131 274 -83 640 109 834 90 91 253
193 369 230 95 31 230 33 364 5z"/>
<path d="M5020 5606 c-162 -45 -272 -154 -311 -310 -31 -124 13 -302 98 -396
57 -63 110 -95 193 -114 175 -42 345 7 443 126 113 137 137 330 61 480 -31 60
-117 149 -174 178 -95 49 -214 62 -310 36z"/>
</g>
</svg>
