<?xml version="1.0" standalone="no"?>
<!DOCTYPE svg PUBLIC "-//W3C//DTD SVG 20010904//EN"
 "http://www.w3.org/TR/2001/REC-SVG-20010904/DTD/svg10.dtd">
<svg version="1.0" xmlns="http://www.w3.org/2000/svg"
 width="518.000000pt" height="522.000000pt" viewBox="0 0 518.000000 522.000000"
 preserveAspectRatio="xMidYMid meet">

<g transform="translate(0.000000,522.000000) scale(0.100000,-0.100000)"
fill="#000000" stroke="none">
<path d="M2255 5145 c-347 -52 -715 -174 -976 -325 -462 -269 -789 -631 -1026
-1137 -99 -211 -167 -437 -205 -678 -26 -166 -31 -491 -10 -670 59 -502 270
-964 624 -1370 208 -237 486 -449 797 -605 178 -90 466 -179 726 -226 144 -26
534 -26 694 -1 477 76 954 295 1302 600 266 233 552 626 678 931 122 297 180
574 188 901 9 344 -34 623 -141 920 -147 404 -434 817 -761 1092 -373 314
-858 518 -1360 573 -125 14 -422 11 -530 -5z m481 -246 c297 -29 621 -123 859
-249 337 -179 596 -415 816 -743 159 -237 259 -470 338 -782 30 -118 41 -194
51 -355 21 -306 -18 -568 -132 -905 -67 -199 -219 -466 -374 -657 -433 -536
-1075 -848 -1744 -848 -149 0 -310 18 -497 55 -569 115 -1079 471 -1426 995
-165 250 -285 567 -334 880 -25 160 -25 520 0 675 105 643 461 1211 976 1557
123 82 360 203 486 248 154 54 445 119 600 133 90 8 278 6 381 -4z"         fill="#00202e"/>
<path d="M2315 4604 c-389 -52 -776 -224 -1074 -476 -210 -177 -422 -481 -546
-781 -41 -101 -97 -299 -122 -431 -12 -66 -17 -148 -17 -296 0 -185 3 -218 27
-336 107 -515 416 -988 832 -1273 247 -169 468 -262 783 -331 459 -100 996 18
1444 319 158 106 269 206 381 345 280 343 396 589 474 1006 28 154 23 435 -11
614 -85 442 -302 836 -624 1131 -118 109 -160 141 -282 217 -209 130 -374 200
-595 254 -223 53 -458 67 -670 38z m393 -245 c311 -34 580 -136 831 -315 377
-269 619 -655 708 -1129 27 -141 24 -436 -5 -588 -57 -301 -211 -615 -415
-848 -88 -101 -144 -150 -293 -257 -145 -103 -257 -163 -402 -217 -147 -54
-267 -81 -407 -95 -357 -33 -666 24 -980 182 -107 53 -136 71 -230 142 -224
167 -404 375 -514 593 -138 275 -194 505 -193 793 1 342 81 626 265 940 107
184 290 370 501 512 333 222 753 329 1134 287z"                                   fill="#224647"/>
<path d="M2360 4080 c-70 -12 -233 -58 -338 -95 -359 -129 -699 -464 -841
-830 -64 -164 -94 -313 -99 -498 -5 -180 10 -287 60 -447 41 -129 67 -190 128
-295 218 -378 604 -644 1044 -720 102 -17 340 -20 433 -5 110 18 305 79 409
129 121 58 260 149 345 228 70 65 202 221 226 266 8 16 29 50 47 76 85 120
154 287 192 461 9 41 18 145 21 230 6 189 -17 350 -72 510 -180 515 -608 882
-1152 986 -80 15 -324 17 -403 4z m470 -275 c276 -71 503 -221 672 -445 230
-305 301 -735 182 -1112 -52 -165 -134 -296 -277 -445 -242 -251 -526 -373
-867 -373 -315 0 -596 109 -838 326 -149 134 -286 361 -338 559 -36 137 -45
407 -20 535 25 121 72 262 114 339 95 176 184 278 344 399 167 126 340 203
518 232 41 6 82 13 90 15 8 2 83 2 165 0 122 -3 170 -8 255 -30z"                        fill="#4a9396"/>
<path d="M2372 3424 c-330 -72 -589 -350 -633 -680 -36 -270 54 -513 263 -709
93 -88 162 -129 291 -173 95 -33 111 -36 227 -36 151 -1 236 17 365 79 159 76
272 192 371 380 63 119 75 167 81 310 9 223 -42 393 -162 538 -167 202 -389
308 -638 306 -56 -1 -130 -7 -165 -15z"                                       fill="#fdd03b"/>
</g>
</svg>
